<?xml version="1.0" encoding="UTF-8"?>
<svg id="Layer_1" data-name="Layer 1" xmlns="http://www.w3.org/2000/svg" viewBox="0 0 1024 1024">
  <defs>
    <style>
      .cls-1 {
        fill: #217346;
      }

      .cls-2 {
        fill: #606060;
      }
    </style>
  </defs>
  <path class="cls-2" d="m436.287,368.215c47.596,0,95.192,0,142.789,0,37.666,0,75.334.223,112.996-.114,14.069-.126,21.617,3.672,21.712,22.405.372,72.831.145,145.664.159,218.497.001,7.3-.777,14.283-7.379,18.95-2.568,1.816-5.052,3.342-8.654,3.332-92.741-.263-185.485-.696-278.223-.183-16.783.093-33.794-3.103-50.486,1.426-40.623-3.893-81.34-.834-122.007-1.602-22.201-.419-44.417-.157-66.626-.074-3.96.015-7.917-.121-11.614-1.341-6.875-2.27-9.862-7.065-9.881-15.707-.076-33.967-.037-67.933-.044-101.9-.009-40.861-.039-81.722-.024-122.583.006-15.959,4.905-21.049,20.64-21.078,40.978-.074,81.955-.026,122.933-.026,44.57,0,89.14,0,133.71,0Zm241.248,199.3c-12.415-21.196-24.274-40.456-36.665-59.42-2.644-4.047-7.585-8.444-3.471-14.792,9.333-14.402,16.539-30.06,26.25-44.286,3.478-5.095,7.267-10.377,9.48-17.632-12.799,0-24.799.475-36.734-.195-6.222-.35-9.491,2.139-12.085,7.066-3.774,7.167-6.726,14.858-12.725,21.573-4.851-8.461-9.2-16.246-13.771-23.899-1.375-2.303-2.449-4.777-6.35-4.674-13.299.35-26.613.134-39.974.134-.191,4.892,2.494,7.966,4.357,11.167,9.638,16.56,19.367,33.076,29.53,49.316,2.436,3.893,2.564,7.105.054,10.17-5.315,6.49-8.78,14.064-13.087,21.132-8.591,14.099-16.889,28.377-25.714,43.267,8.353,1.86,15.795,1.012,23.15,1.053,22.78.127,22.689-.007,34.317-19.553,2.294-3.856,3.076-9.288,9.069-10.721,5.476,8.429,9.63,17.431,15.217,25.585,2.031,2.966,3.576,4.818,7.367,4.771,13.349-.164,26.701-.064,41.785-.064Zm-479.71-136.131c12.16,20.535,23.171,39.967,35.134,58.793,3.312,5.213,2.636,8.821.002,13.136-8.816,14.441-18.22,28.555-26.331,43.379-3.516,6.426-9.332,11.98-10.284,20.743,13.949,0,27.295-.053,40.64.036,3.519.024,4.929-2.044,6.442-4.78,3.719-6.726,7.793-13.256,11.725-19.865,4.544-7.636,5.214-7.561,9.964.548,3.728,6.364,7.934,12.47,11.324,19.003,1.943,3.743,4.453,5.191,8.4,5.176,13.347-.052,26.695-.02,41.33-.02-14.828-24.163-28.994-47.247-42.987-70.05,13.052-21.549,24.887-43.743,40.068-66.086-15.412,0-28.977.004-42.542-.003-3.399-.002-5.043,1.92-6.378,4.895-2.74,6.108-6.834,11.482-9.749,17.562-2.312,4.824-5.223,4.508-8.18-.31-3.178-5.178-6.427-10.344-9.129-15.773-2.294-4.61-5.286-6.651-10.627-6.499-12.393.353-24.803.112-38.824.112Zm332.581,39.893c4.362-9.039,5.462-18.349,8.597-26.992,2.035-5.608.369-8.461-5.146-10.791-15.411-6.51-31.685-7.572-47.607-5.425-27.066,3.649-42.291,30.386-35.787,54.608,4.492,16.729,16.739,26.705,32.268,32.898,4.196,1.673,8.396,3.341,12.042,5.888,4.718,3.295,5.327,11.306.987,13.079-4.585,1.872-9.244,3.864-14.849,2.369-10.641-2.839-21.103-5.995-30.773-11.731-2.189,8.253-2.158,15.98-4.432,23.373-2.141,6.961.246,14.296,4.948,16.143,19.722,7.745,39.763,12.012,60.591,4.143,19.147-7.234,29.444-20.68,29.983-42.307.464-18.612-7.553-32.679-24.95-40.734-6.341-2.936-12.703-5.888-18.76-9.351-3.404-1.947-6.295-4.994-5.057-9.633,1.272-4.766,5.255-3.971,8.782-3.934,10.13.105,19.531,2.892,29.161,8.398Zm-191.776,98.084h92.147c.425-12.977.814-25.156-.286-38.36h-50.066v-101.237h-41.795v139.597Z"/>
  <path class="cls-1" d="m652.854,907.948c7.636-10.515,15.134-20.919,22.723-31.256,3.783-5.154,8.961-6.356,15.277-6.314,39.855.268,79.716-.058,119.569.337,10.077.1,13.741-2.754,13.73-13.527-.221-215.621-.169-431.243-.18-646.865,0-10.302-2.44-12.676-12.574-12.666-24.18.025-48.37-.398-72.537.167-12.939.302-25.839-.073-38.756-.161-3.265-.022-6.511.02-9.724-.848-9.051-2.445-11.78-5.467-11.819-14.915-.151-36.916-.114-73.833-.146-110.749-.002-2.287.034-4.575-.008-6.861-.191-10.185-1.226-11.39-11.193-11.422-29.403-.094-58.806-.06-88.209-.065-41.164-.006-82.328-.002-123.493-.002-62.401,0-124.801,0-187.202,0-3.903,0-7.806,0-11.483,0-2.979,3.942-2.31,7.957-2.315,11.768-.046,40.837-.027,81.674-.026,122.512,0,19.019-.42,38.05.11,57.055.654,23.483-1.52,46.992.919,70.488.311,2.997-.317,7.023-1.238,10.385-1.368,4.992-4.13,8.809-10.112,8.764-6.86-.053-13.723.099-20.581-.027-9.094-.168-10.869-1.754-11.033-10.934-.234-13.064-.066-26.135-.064-39.203.013-83.308.008-166.616.06-249.924.008-13.298,2.529-17.575,11.371-20.929,2.564-.973,5.129-.728,7.691-.728,156.164-.032,312.327-.035,468.491-.014,8.669.001,15.949,2.963,22.26,9.308,44.465,44.702,89.023,89.314,133.801,133.703,6.268,6.213,8.844,12.982,8.838,21.545-.167,217.255-.245,434.51-.339,651.766-.009,19.929-.437,39.869.108,59.782.433,15.829-7.789,23.512-23.572,23.28-47.688-.7-95.391-.46-143.087-.595-11.721-.033-23.433-.048-35.132,1.017-3.385.308-7.326,1.196-10.123-3.871Z"/>
  <path class="cls-2" d="m617.045,809.793c13.39.871,27.028.54,40.674.285,6.265-.117,12.629-.359,18.789.541,9.153,1.338,12.037,7.109,7.086,14.88-7.908,12.412-17.005,24.024-25.857,35.801-20.203,26.878-39.944,54.104-59.922,81.152-15.393,20.84-30.716,41.735-46.356,62.388-7.77,10.26-18.187,9.222-26.009-1.392-16.176-21.95-32.822-43.554-49.058-65.461-13.959-18.835-27.544-37.947-41.43-56.837-13.489-18.349-27.297-36.465-40.677-54.893-6.637-9.141-3.644-15.421,7.677-15.745,16.64-.476,33.302-.137,49.955-.213,10.786-.049,11.506-.771,11.519-11.883.038-31.674-.004-63.348.024-95.021.005-6.21-.958-12.302-.187-18.66,1.192-9.829,5.604-16.122,15.234-17.783,3.832-.661,7.779-.903,11.674-.908,32.979-.039,65.958-.016,98.937.064,18.271.044,25.43,6.877,25.706,25.106.274,18.122.059,36.252.058,54.379-.001,18.127-.016,36.254.005,54.382.004,3.226-.109,6.506,2.16,9.817Z"/>
  <path class="cls-1" d="m420.625,911.05c-31.593,0-63.25-.017-94.908.005-29.716.021-59.432.082-89.148.125-1.306.002-2.613.024-3.919-.005-14.797-.328-19.93-5.212-20.068-19.902-.206-21.877-.116-43.758-.118-65.637-.002-18.287.956-36.632-.199-54.844-1.068-16.846.145-33.677-.571-50.531-.648-15.236-.054-31.017.915-46.519.379-6.07,3.019-9.546,9.923-9.015,6.494.5,13.055.064,19.585.154,9.364.129,12.263,2.84,12.326,12.257.154,23.184.113,46.37.116,69.555.003,17.634-.083,35.267-.065,52.901.022,21.11.193,42.22.121,63.329-.019,5.518,2.639,7.64,7.755,7.627,6.205-.016,12.409.004,18.614.002,34.614-.015,69.229.034,103.843-.099,7.992-.031,13.743,2.048,18.411,9.629,4.976,8.082,11.12,15.606,16.911,23.253,1.599,2.112,2.16,3.832.476,7.715Z"/>
</svg>