<?xml version="1.0" encoding="UTF-8"?>
<svg id="Layer_1" data-name="Layer 1" xmlns="http://www.w3.org/2000/svg" viewBox="0 0 1024 1024">
  <path d="m1011.631,495.299c-.082-.443-.137-.9-.128-1.35.055-2.753-.632-5.393-1.39-7.986-1.715-5.865-4.32-11.323-7.863-16.325-2.698-3.809-5.893-7.142-9.481-10.112-.35-.29-.703-.576-1.042-.878-3.67-3.26-7.331-6.529-11.006-9.782-3.131-2.771-6.274-5.528-9.416-8.286-2.868-2.517-5.733-5.036-8.616-7.536-3.5-3.035-7.031-6.036-10.522-9.081-2.261-1.972-4.46-4.016-6.714-5.997-2.182-1.917-4.405-3.789-6.601-5.691-1.58-1.368-3.151-2.747-4.716-4.132-2.042-1.808-4.061-3.642-6.115-5.436-2.256-1.972-4.548-3.903-6.811-5.868-1.647-1.43-3.276-2.88-4.906-4.33-2.175-1.934-4.323-3.899-6.518-5.81-3.495-3.043-7.029-6.04-10.528-9.079-1.991-1.73-3.93-3.518-5.916-5.254-2.326-2.033-4.678-4.037-7.016-6.055-.276-.238-.537-.493-.809-.735-3.872-3.443-7.737-6.895-11.621-10.325-2.86-2.526-5.747-5.022-8.62-7.534-4.378-3.827-8.755-7.655-13.13-11.486-2.94-2.573-5.875-5.151-8.814-7.726-2.939-2.574-5.878-5.148-8.819-7.719-2.872-2.512-5.748-5.02-8.621-7.531-2.941-2.572-5.88-5.146-8.819-7.719-2.871-2.513-5.734-5.036-8.617-7.536-3.499-3.034-7.027-6.036-10.521-9.075-2.126-1.85-4.199-3.761-6.322-5.616-2.188-1.911-4.414-3.78-6.611-5.681-1.58-1.368-3.145-2.754-4.709-4.141-2.109-1.87-4.194-3.767-6.319-5.618-3.561-3.102-7.149-6.173-10.718-9.265-1.58-1.369-3.15-2.751-4.715-4.137-2.11-1.87-4.198-3.766-6.32-5.622-2.189-1.913-4.415-3.784-6.611-5.688-1.649-1.429-3.282-2.877-4.913-4.326-2.176-1.933-4.324-3.898-6.519-5.809-3.495-3.042-7.03-6.04-10.528-9.079-1.991-1.73-3.929-3.519-5.915-5.255-2.326-2.033-4.679-4.035-7.018-6.053-.276-.238-.536-.494-.808-.736-3.872-3.444-7.737-6.896-11.621-10.326-2.86-2.526-5.747-5.022-8.62-7.534-2.941-2.572-5.878-5.148-8.82-7.72-2.873-2.512-5.741-5.028-8.624-7.528-3.498-3.034-7.02-6.042-10.512-9.084-2.125-1.852-4.197-3.764-6.32-5.618-2.188-1.911-4.414-3.779-6.612-5.678-1.513-1.307-3.012-2.629-4.508-3.954-2.109-1.87-4.195-3.766-6.318-5.62-2.188-1.912-4.414-3.78-6.611-5.681-1.58-1.368-3.147-2.752-4.709-4.14-2.176-1.933-4.326-3.895-6.517-5.811-2.051-1.794-4.147-3.537-6.209-5.319-1.651-1.427-3.289-2.868-4.918-4.32-2.308-2.057-4.581-4.155-6.909-6.188-3.557-3.106-7.152-6.169-10.722-9.259-1.58-1.368-3.148-2.75-4.709-4.139-2.174-1.933-4.32-3.899-6.51-5.814-2.051-1.792-4.155-3.523-6.215-5.304-1.719-1.487-3.413-3.003-5.109-4.516-2.376-2.119-4.728-4.266-7.121-6.366-1.978-1.736-4.012-3.409-6.002-5.131-1.718-1.486-3.443-2.967-5.11-4.511-5.106-4.73-10.829-8.522-17.167-11.388-3.719-1.682-7.603-2.918-11.586-3.732-2.382-.486-4.817-.929-7.292-.754-.364.026-.727-.029-.858-.468h-6.538c-.108.131-.193.333-.329.377-.251.082-.532.098-.8.096-4.482-.028-8.767,1.032-12.97,2.448-6.136,2.068-11.76,5.118-16.814,9.18-2.26,1.816-4.442,3.73-6.657,5.602-1.938,1.638-3.881,3.268-5.805,4.922-1.651,1.419-3.287,2.856-4.915,4.301-2.173,1.928-4.317,3.888-6.501,5.802-2.046,1.793-4.135,3.536-6.191,5.316-1.577,1.365-3.142,2.745-4.698,4.135-2.234,1.995-4.439,4.023-6.685,6.004-2.175,1.919-4.389,3.793-6.58,5.695-.48.417-.921.88-1.398,1.3-2.656,2.336-5.318,4.665-7.976,6.999-.273.24-.528.501-.798.744-3.985,3.577-7.963,7.162-11.959,10.727-3.046,2.717-6.113,5.409-9.171,8.113-3.127,2.764-6.252,5.529-9.38,8.292-2.991,2.642-5.973,5.294-8.978,7.919-3.482,3.041-6.992,6.051-10.477,9.089-1.71,1.49-3.396,3.007-5.086,4.52-2.164,1.937-4.308,3.897-6.486,5.817-2.244,1.979-4.525,3.914-6.777,5.884-1.844,1.613-3.674,3.242-5.5,4.876-2.3,2.06-4.571,4.152-6.886,6.193-1.971,1.737-3.996,3.412-5.979,5.135-1.644,1.428-3.264,2.884-4.889,4.334-2.099,1.874-4.179,3.768-6.29,5.628-2.38,2.098-4.79,4.161-7.177,6.251-1.706,1.494-3.403,2.999-5.093,4.511-2.3,2.059-4.571,4.151-6.888,6.191-3.675,3.236-7.385,6.43-11.064,9.661-2.114,1.856-4.182,3.765-6.292,5.625-2.38,2.098-4.79,4.162-7.177,6.251-1.706,1.494-3.403,2.999-5.092,4.512-2.3,2.059-4.571,4.151-6.888,6.191-3.675,3.235-7.385,6.43-11.065,9.66-2.046,1.796-4.05,3.64-6.092,5.439-2.449,2.158-4.922,4.287-7.378,6.437-1.57,1.374-3.133,2.755-4.687,4.147-2.366,2.121-4.701,4.279-7.085,6.379-3.743,3.296-7.524,6.548-11.273,9.837-2.115,1.855-4.185,3.762-6.295,5.622-2.38,2.098-4.789,4.163-7.175,6.254-1.637,1.435-3.262,2.884-4.883,4.336-2.368,2.12-4.709,4.269-7.095,6.368-3.677,3.233-7.39,6.425-11.072,9.652-1.979,1.734-3.915,3.517-5.889,5.258-2.517,2.219-5.055,4.413-7.578,6.625-1.637,1.435-3.268,2.877-4.89,4.33-2.366,2.12-4.704,4.273-7.087,6.373-1.971,1.737-3.992,3.416-5.985,5.129-.413.355-.792.751-1.201,1.112-2.723,2.397-5.453,4.786-8.176,7.184-1.703,1.499-3.404,2.999-5.094,4.511-2.3,2.059-4.581,4.139-6.886,6.194-3.182,2.837-6.373,5.664-9.57,8.485-2.789,2.46-5.586,4.911-8.388,7.355-3.69,3.218-7.396,6.417-11.082,9.64-1.912,1.673-3.784,3.392-5.694,5.068-2.385,2.093-4.79,4.161-7.184,6.243-.343.298-.667.618-1.005.922-3.789,3.388-7.573,6.781-11.371,10.158-2.915,2.591-5.842,5.17-8.776,7.739-3.751,3.285-7.527,6.541-11.271,9.835-2.248,1.979-4.44,4.021-6.683,6.007-2.444,2.164-4.918,4.293-7.375,6.442-1.365,1.194-2.734,2.384-4.079,3.6-2.424,2.191-4.95,4.285-7.22,6.627-4.187,4.32-7.716,9.153-10.237,14.652-2.182,4.761-3.814,9.701-4.397,15.001-.084.768-.223,1.529-.429,2.273-.36,1.301-.248,2.6-.352,3.902-.015.187-.324.35-.497.523v2.187c.173.176.484.341.498.528.363,4.94,1.079,9.852,2.327,14.144.654,2.249,1.487,4.46,2.421,6.61,2.81,6.469,6.587,12.296,11.572,17.327,2.696,2.721,5.521,5.288,8.713,7.382,5.163,3.386,10.636,6.15,16.683,7.619,2.098.51,4.2,1.002,6.3,1.501l.085.014c4.029.36,8.064.951,12.109.534,3.217-.332,6.423-.802,9.56-1.701,7.143-2.047,13.445-5.669,19.355-10.084,3.566-2.664,6.97-5.512,10.239-8.537,3.463-3.205,7.004-6.325,10.521-9.472,3.178-2.844,6.357-5.687,9.558-8.504,3.676-3.236,7.387-6.432,11.064-9.667,2.182-1.92,4.316-3.894,6.495-5.817,2.312-2.04,4.662-4.037,6.974-6.077,1.023-.902,1.976-1.884,2.992-2.793.671-.6,1.398-1.136,2.215-1.792.523.828.18,1.689.457,2.382.281.703.337,1.41.358,2.136.049,1.73.12,3.46.12,5.19.007,36.631.002,73.262.016,109.894,0,1.53-.165,3.064.316,4.593.235.747.054,1.627.054,2.447,0,24.056,0,48.193,0,72.253,0,38.185-.009,76.371.005,114.556.005,13.578.062,27.157.1,40.735.009,3.371.034,6.743.063,10.114.007.812-.038,1.615.233,2.427.194.582.138,1.256.142,1.89.042,6.561.057,13.122.119,19.683.015,1.623-.191,3.271.396,4.859.12.324.04.723.048,1.087.091,4.097.988,8.069,1.902,12.033,1.555,6.745,4.149,13.099,7.425,19.177,2.416,4.483,5.268,8.68,8.453,12.661,1.539,1.924,3.209,3.718,4.891,5.51.932.993,1.739,2.116,2.741,3.027,2.823,2.568,5.647,5.143,8.599,7.559,5.422,4.437,11.178,8.384,17.621,11.235,4.142,1.832,8.422,3.267,12.816,4.352,3.072.759,6.174,1.338,9.317,1.777,3.232.452,6.454.876,9.716,1.055,2.35.129,4.681.548,7.051.497,1.639-.036,3.281.02,4.921.038.367.004.729.032.859.473h39.384c.103-.133.199-.373.311-.381.814-.058,1.632-.092,2.448-.092,57.974-.031,115.948-.058,173.923-.085,7.931-.004,15.861.005,23.792-.002,29.989-.026,59.979-.079,89.968-.08,27.072-.001,54.144.048,81.217.083,13.672.018,27.345.052,41.017.084.725.002,1.452.036,2.174.098.119.01.218.245.326.376h62.905c.099-.467.465-.463.829-.48,3.266-.156,6.485-.756,9.683-1.324,4.797-.851,9.48-2.248,14.077-3.894,5.99-2.144,11.692-4.862,17.107-8.221,4.49-2.785,8.706-5.903,12.681-9.383,2.126-1.861,4.209-3.754,6.118-5.83,4.868-5.295,9.184-10.992,12.795-17.234,3.647-6.305,6.394-12.982,8.485-19.93,1.065-3.54,1.876-7.155,2.491-10.811.587-3.487.879-6.995,1.19-10.513.257-2.905.256-5.798.337-8.696.081-2.914.032-5.831.032-8.746.001-24.511-.003-49.022.001-73.532.016-94.216.033-188.432.059-282.648,0-1.988-.11-3.977.383-5.955.236-.948.071-1.994.113-2.995.014-.342.107-.681.184-1.142,2.915,2.118,5.737,4.091,8.289,6.436,2.004,1.842,4.134,3.547,6.203,5.319.415.355.805.739,1.213,1.104,3.93,3.518,7.852,7.045,11.796,10.547,2.786,2.473,5.587,4.93,8.41,7.361,3.303,2.845,6.641,5.651,9.957,8.481,1.66,1.416,3.271,2.892,4.965,4.265,4.724,3.829,9.225,7.959,14.436,11.145,4.418,2.701,9.11,4.763,14.156,6.092,5.153,1.357,10.355,1.744,15.632,1.481,1.44-.072,2.886-.272,4.302-.551,5.886-1.158,11.568-2.921,16.825-5.884,3.805-2.145,7.409-4.565,10.723-7.435,1.998-1.731,3.949-3.494,5.749-5.427,4.744-5.093,8.605-10.768,11.254-17.225,1.34-3.267,2.269-6.669,2.984-10.117.256-1.232.132-2.542.182-3.817.015-.366.038-.729.476-.863v-10.936c-.128-.113-.345-.21-.369-.343Zm-228.583,377.586c-.135,1.725-.574,3.383-1.368,4.936-1.196,2.34-3.157,3.662-5.641,4.343-1.596.438-3.209.505-4.85.505-35.447-.012-70.894-.009-106.341-.009-15.947,0-31.893.001-47.84-.003-.899,0-1.805.07-3.007-.122,0-1.224,0-2.223,0-3.221,0-29.251.002-58.501-.007-87.752,0-1.353.126-2.707-.307-4.055-.213-.664-.067-1.446-.067-2.174-.002-39.001-.002-78.002.004-117.003,0-.993-.075-1.982.269-2.971.2-.574.104-1.258.105-1.892.007-3.736,0-7.472.004-11.208.019-16.949.032-33.897.064-50.846.015-8.382.066-16.765.099-25.147.003-.729.003-1.458-.003-2.187-.021-2.906-.508-5.748-1.038-8.6-.82-4.414-2.419-8.535-4.535-12.441-2.529-4.668-5.808-8.798-9.835-12.279-5.226-4.518-11.26-7.556-17.865-9.502-3.22-.467-6.385-1.315-9.679-1.261-4.372.071-8.768-.185-13.113.184-4.362.37-8.71.276-13.063.355-4.372.08-8.747.061-13.12.063-14.398.006-28.795.016-43.193-.002-16.128-.02-32.256-.071-48.384-.102-1.366-.003-2.735-.007-4.099.062-9.015.454-17.186,3.209-24.332,8.847-5.338,4.212-9.096,9.527-11.681,15.788-1.078,2.611-1.87,5.291-2.435,8.017-.838,4.048-1.076,8.235-.499,12.476.757,5.556.529,11.166-.223,16.723-.22,1.622.167,3.214-.384,4.83-.251.737-.065,1.624-.065,2.444-.001,23.328,0,46.655,0,69.983,0,20.503-.002,41.006.007,61.509,0,1.081-.053,2.149.272,3.24.251.841.101,1.807.101,2.717.003,28.886.002,57.772.002,86.659v58.387c-.392.543-.865.476-1.31.482-.638.008-1.276.003-1.914.003-45.562,0-91.124-.011-136.686.03-2.471.002-4.916-.233-7.307-.644-3.443-.592-5.008-1.976-5.78-5.579-.395-1.847-.628-3.735-.618-5.663.044-8.2-.023-16.401-.023-24.602-.003-117.914-.004-235.828,0-353.742,0-17.222.036-34.444.046-51.666.002-3.826-.059-7.651-.041-11.477.021-4.476,1.685-8.31,4.77-11.51,1.956-2.03,3.977-3.992,6.215-5.731,1.647-1.28,3.156-2.74,4.717-4.129,2.175-1.935,4.324-3.898,6.515-5.815,3.76-3.29,7.55-6.546,11.314-9.831,1.918-1.674,3.794-3.395,5.71-5.071,2.393-2.094,4.809-4.161,7.211-6.245.413-.358.793-.754,1.204-1.113,2.734-2.393,5.481-4.773,8.208-7.174,1.979-1.742,3.922-3.525,5.903-5.265,2.526-2.219,5.076-4.409,7.61-6.618,1.575-1.374,3.146-2.752,4.706-4.143,2.309-2.058,4.59-4.147,6.913-6.19,2.113-1.858,4.275-3.662,6.399-5.509,1.715-1.491,3.41-3.004,5.106-4.516,2.376-2.119,4.727-4.266,7.119-6.366,3.686-3.235,7.406-6.431,11.095-9.663,2.12-1.857,4.194-3.768,6.31-5.628,2.387-2.099,4.803-4.165,7.201-6.252,1.507-1.313,3.012-2.629,4.502-3.961,2.306-2.06,4.582-4.153,6.903-6.195,2.113-1.859,4.277-3.659,6.403-5.504,1.716-1.49,3.414-3.002,5.11-4.516,2.374-2.12,4.722-4.27,7.112-6.372,1.977-1.739,4-3.425,6-5.138.277-.237.533-.498.806-.738,2.866-2.519,5.737-5.032,8.6-7.555,1.773-1.562,3.539-3.133,5.302-4.708,2.17-1.938,4.315-3.905,6.503-5.822,3.689-3.231,7.415-6.421,11.105-9.651,2.121-1.857,4.189-3.775,6.307-5.636,2.387-2.099,4.809-4.159,7.205-6.247,1.645-1.434,3.279-2.88,4.905-4.335,2.372-2.122,4.704-4.29,7.105-6.378,3.289-2.861,6.635-5.655,9.94-8.498,1.861-1.601,3.678-3.254,5.535-4.861,2.06-1.783,4.143-3.54,6.214-5.31.277-.237.546-.482.817-.726,2.566-2.316,5.137-4.626,7.696-6.95,2.22-2.017,4.429-4.048,6.636-6.08,1.939-1.785,3.885-3.564,5.796-5.378,1.203-1.141,2.611-1.923,4.061-2.699,2.334-1.249,4.581-.893,6.699.293,1.571.88,3.03,2.01,4.396,3.195,3.845,3.336,7.61,6.764,11.418,10.143,3.058,2.714,6.132,5.411,9.201,8.113,2.933,2.582,5.871,5.159,8.805,7.74,3.07,2.701,6.14,5.403,9.208,8.107,3.137,2.763,6.269,5.532,9.409,8.291,2.867,2.52,5.746,5.026,8.613,7.546,3.14,2.759,6.27,5.53,9.41,8.29,2.935,2.58,5.878,5.151,8.817,7.727,2.869,2.515,5.74,5.028,8.607,7.547,3.141,2.76,6.275,5.528,9.418,8.286,2.869,2.517,5.749,5.022,8.621,7.537,2.939,2.574,5.874,5.153,8.812,7.729,2.937,2.576,5.874,5.153,8.813,7.727,2.871,2.514,5.749,5.02,8.617,7.537,3.143,2.758,6.275,5.528,9.418,8.285,2.87,2.518,5.742,5.033,8.627,7.535,3.499,3.035,7.023,6.04,10.514,9.084,2.125,1.852,4.194,3.768,6.315,5.624,2.118,1.853,4.276,3.66,6.406,5.5,1.582,1.366,3.152,2.746,4.716,4.133,2.109,1.87,4.194,3.768,6.315,5.624,2.187,1.913,4.411,3.783,6.609,5.684,1.512,1.307,3.013,2.628,4.51,3.953,2.11,1.868,4.199,3.762,6.322,5.616,2.189,1.911,4.415,3.778,6.612,5.68,1.718,1.487,3.422,2.992,5.121,4.5,2.177,1.932,4.328,3.894,6.519,5.81,1.983,1.733,4.014,3.412,6.01,5.132,1.515,1.305,3.015,2.629,4.509,3.958,2.174,1.934,4.323,3.897,6.507,5.819,2.318,2.039,4.679,4.03,6.995,6.071,2.114,1.863,4.198,3.76,6.286,5.652,2.562,2.321,5.11,4.657,7.674,6.976,1.144,1.035,2.35,2.005,3.459,3.076,2.801,2.708,4.705,5.994,5.8,9.703.507,1.719.77,3.509.77,5.349-.013,28.704.024,57.407.029,86.111.021,116.456.036,232.911.051,349.367,0,1.184.029,2.373-.064,3.551Z"/>
</svg>