<?xml version="1.0" encoding="UTF-8"?>
<svg id="Layer_1" data-name="Layer 1" xmlns="http://www.w3.org/2000/svg" viewBox="0 0 1024 1024">
  <defs>
    <style>
      .cls-1 {
        stroke-linejoin: round;
      }

      .cls-1, .cls-2 {
        fill: none;
        stroke: #000;
        stroke-linecap: round;
        stroke-width: 90px;
      }

      .cls-2 {
        stroke-miterlimit: 10;
      }
    </style>
  </defs>
  <path d="m926.629,336.834c-22.665-53.588-55.11-101.711-96.431-143.032-41.321-41.321-89.443-73.765-143.031-96.431-55.491-23.47-114.425-35.371-175.167-35.371s-119.676,11.9-175.166,35.371c-53.588,22.666-101.711,55.11-143.032,96.431-41.321,41.321-73.765,89.444-96.431,143.032-23.47,55.49-35.371,114.425-35.371,175.166s11.9,119.675,35.371,175.167c22.666,53.588,55.11,101.71,96.431,143.031,41.321,41.321,89.444,73.766,143.032,96.431,55.49,23.47,114.425,35.371,175.166,35.371s119.675-11.9,175.167-35.371c53.588-22.665,101.71-55.11,143.031-96.431s73.766-89.443,96.431-143.031c23.47-55.491,35.371-114.425,35.371-175.167s-11.9-119.676-35.371-175.166Zm-414.629,528.16c-194.641,0-352.994-158.353-352.994-352.994s158.353-352.994,352.994-352.994,352.994,158.353,352.994,352.994-158.353,352.994-352.994,352.994Z"/>
  <g>
    <polyline class="cls-1" points="427.441 435.262 512 435.262 512 741.789"/>
    <line class="cls-2" x1="395.731" y1="752.359" x2="628.269" y2="752.359"/>
    <path d="m501.43,213.437c-37.944,0-68.704,30.76-68.704,68.704s30.76,68.704,68.704,68.704,68.704-30.76,68.704-68.704-30.76-68.704-68.704-68.704Z"/>
  </g>
</svg>