<?xml version="1.0" encoding="UTF-8"?><svg id="a" xmlns="http://www.w3.org/2000/svg" viewBox="0 0 1024 1024"><defs><style>.b{fill:#c80425;}</style></defs><path class="b" d="M90.947,12V1012l519.204-157.825V177.092L90.947,12Zm473.927,799.554H123.455v-11.784c30.751,0,50.635-7.111,59.651-21.333,9.009-14.222,13.521-32.845,13.521-55.872V303.217c0-21.943-4.114-40.494-12.328-55.669-8.221-15.168-27.179-22.755-56.868-22.755h-3.977v-11.784h422.728l4.772,134.094h-11.533c-5.307-22.482-11.203-41.041-17.697-55.669-6.5-14.628-15.708-25.803-27.638-33.523-11.93-7.721-28.235-11.581-48.914-11.581h-118.109v251.527h94.249c28.098,0,48.578-6.361,61.441-19.098,12.857-12.73,20.343-31.555,22.469-56.482h11.533v175.541h-11.533c-3.977-26.546-13.658-44.292-29.03-53.231-15.379-8.94-33.672-13.409-54.879-13.409h-94.249v172.29c0,49.846,25.184,74.767,75.558,74.767h35.791c24.121,0,43.806-3.251,59.055-9.752,15.243-6.502,27.837-17.676,37.779-33.523s18.89-38.259,26.843-67.25h11.533l-8.749,143.846Z"/><path class="b" d="M639.359,223.979v-10.971h275.189v11.784c-30.49,0-50.175,7.111-59.055,21.333-8.885,14.222-13.321,32.984-13.321,56.279v420.16c0,13.275,1.192,25.193,3.579,35.758,2.386,10.565,8.68,20.114,18.889,28.647,10.203,8.533,25.781,12.8,46.727,12.8h3.182v11.784h-275.189v-11.784c30.223,0,49.84-7.041,58.855-21.13,9.01-14.082,13.521-32.774,13.521-56.075V302.403c0-27.632-5.902-47.606-17.696-59.936-11.8-12.324-30.024-18.489-54.68-18.489Z"/></svg>