<?xml version="1.0" encoding="UTF-8"?><svg id="a" xmlns="http://www.w3.org/2000/svg" viewBox="0 0 1024 1024"><defs><style>.b{fill:#c80425;}</style></defs><path class="b" d="M12,77.217V946.783l447.988-137.239V220.776L12,77.217ZM420.921,772.481H40.049v-10.247c26.533,0,43.69-6.184,51.469-18.551,7.774-12.367,11.666-28.561,11.666-48.585V330.449c0-19.081-3.55-35.212-10.637-48.408-7.093-13.189-23.451-19.787-49.067-19.787h-3.431v-10.247H404.794l4.118,116.603h-9.951c-4.579-19.55-9.666-35.688-15.269-48.408-5.608-12.72-13.554-22.437-23.847-29.151-10.294-6.714-24.362-10.07-42.205-10.07h-101.909v218.719h81.321c24.244,0,41.915-5.532,53.013-16.607,11.093-11.069,17.553-27.439,19.387-49.115h9.951v152.644h-9.951c-3.431-23.084-11.785-38.514-25.048-46.288-13.27-7.774-29.054-11.66-47.352-11.66h-81.321v149.817c0,43.345,21.729,65.015,65.194,65.015h30.882c20.812,0,37.797-2.827,50.955-8.48,13.152-5.653,24.019-15.37,32.597-29.151,8.578-13.78,16.299-33.269,23.161-58.478h9.951l-7.549,125.083Z"/><g><path class="b" d="M632.235,252.005v6.007c-15.098,0-27.912,4.362-38.432,13.074-10.523,8.718-15.783,23.205-15.783,43.461v395.037c0,20.025,5.604,34.573,16.814,43.639,11.205,9.07,23.676,13.604,37.4,13.604v5.653h-160.241v-5.653c14.637,0,27.279-4.417,37.916-13.251,10.637-8.833,15.956-23.497,15.956-43.991V314.547c0-21.67-5.318-36.51-15.956-44.521-10.637-8.005-23.279-12.014-37.916-12.014v-6.007h160.241Z"/><path class="b" d="M809.151,252.005v6.007c-15.098,0-27.911,4.362-38.431,13.074-10.524,8.718-15.783,23.205-15.783,43.461v395.037c0,20.025,5.603,34.573,16.813,43.639,11.205,9.07,23.676,13.604,37.4,13.604v5.653h-160.24v-5.653c14.636,0,27.278-4.417,37.915-13.251,10.637-8.833,15.956-23.497,15.956-43.991V314.547c0-21.67-5.319-36.51-15.956-44.521-10.637-8.005-23.279-12.014-37.915-12.014v-6.007h160.24Z"/><path class="b" d="M986.068,252.005v6.007c-15.098,0-27.911,4.362-38.431,13.074-10.524,8.718-15.783,23.205-15.783,43.461v395.037c0,20.025,5.603,34.573,16.813,43.639,11.205,9.07,23.676,13.604,37.4,13.604v5.653h-160.24v-5.653c14.636,0,27.278-4.417,37.915-13.251,10.637-8.833,15.956-23.497,15.956-43.991V314.547c0-21.67-5.319-36.51-15.956-44.521-10.637-8.005-23.279-12.014-37.915-12.014v-6.007h160.24Z"/></g></svg>