<?xml version="1.0" encoding="UTF-8"?>
<svg id="Layer_2" data-name="Layer 2" xmlns="http://www.w3.org/2000/svg" viewBox="0 0 1024 1024">
  <path d="m703.954,285.089c-7.994,7.636-14.226,13.588-21.4,20.441-5.643-4.409-10.817-7.462-14.735-11.682-17.399-18.742-32.868-39.819-61.937-14.301-6.252,5.489-22.295,3.09-32.551.035-18.22-5.427-37.379-11.463-52.513-22.312-12.214-8.755-18.499-25.447-28.544-37.693-5.629-6.862-12.723-14.53-20.655-16.976-9.553-2.946-20.78.105-31.135-.925-22.977-2.285-41.967.108-43.04,29.497-.089,2.443-1.616,4.96-2.881,7.216-16.762,29.897-93.103,50.64-122.723,33.372-1.496-.872-2.713-2.788-4.223-2.988-30.49-4.03-37.707,25.702-55.441,39.818-5.794,4.612-9.009,21.586-5.143,27.563,13.523,20.91,14.033,39.971,2.31,61.235-5.829,10.572-6.914,24.416-14.315,33.311-10.917,13.123-25.359,23.387-38.695,34.39-6.152,5.076-18.534,8.539-18.989,13.558-2.035,22.432-1.775,45.244.101,67.715.379,4.535,10.939,10.644,17.541,11.791,21.37,3.712,33.796,16.071,41.07,35.576,4.851,13.01,10.155,25.902,16.129,38.431,8.645,18.128,7.632,34.766-3.254,51.933-4.012,6.326-7.92,18.751-4.789,22.54,14.349,17.367,30.578,33.395,47.693,48.086,3.465,2.975,15.097.157,20.533-3.553,19.672-13.426,38.844-12.448,59.104-2.218,9.291,4.691,18.896,9.194,28.857,12.036,22.353,6.38,35.437,20.214,40.639,42.984,1.462,6.401,7.547,16.327,12.102,16.665,22.492,1.667,45.258,1.597,67.736-.218,4.379-.354,9.886-10.682,11.477-17.235,5.226-21.519,17.441-34.985,38.74-41.611,13.211-4.11,25.236-13.6,38.526-15.476,15.329-2.164,34.462-3.588,46.534,3.667,17.077,10.263,26.829,7.828,37.447-5.665,7.525-9.564,14.534-19.534,24.005-32.339,11.871,12.744,18.168,19.503,26.483,28.43-15.709,14.988-28.861,30.159-44.601,41.842-16.918,12.557-35.32,9.447-54.081-.253-8.368-4.327-21.158-5.227-30.148-2.255-25.713,8.498-46.318,18.445-58.024,50.426-14.678,40.1-58.5,22.777-90.838,25.375-22.199,1.783-48.161-3.573-51.644-25.915-6.113-39.21-37.711-40.813-62.708-52.621-5.899-2.786-16.555.283-23.171,3.975-26.126,14.579-44.343,13.257-66.011-7.278-10.747-10.185-21.066-20.823-31.5-31.335-28.666-28.882-29.774-39.073-11.194-75.372,3.073-6.004,3.358-15.062,1.407-21.666-3.917-13.254-8.721-26.793-16.166-38.263-4.821-7.427-14.23-13.749-22.872-16.465-24.618-7.738-38.673-22.413-38.749-48.879-.055-19.168-.341-38.343.051-57.503.581-28.396,13.191-42.453,39.634-50.757,8.972-2.817,18.847-11.137,22.93-19.552,11.702-24.119,28.712-49.177,3.659-75.706-2.045-2.166-2.541-6.666-2.308-9.981,3.029-43.113,39.871-61.305,66.389-85.88,16.77-15.541,38.978-10.617,57.72,3.565,3.743,2.832,11.37,5.76,14.043,3.956,23.116-15.599,61.164-9.416,67.534-51.453,1.769-11.675,25.531-23.87,41.349-28.512,16.863-4.948,36.274-1.544,54.564-1.227,33.897.588,45.415,10.505,55.947,43.076,2.483,7.678,9.986,16.303,17.313,19.335,17.839,7.383,39.843,20.644,54.985,15.691,50.609-16.555,50.171-19.158,87.531,18.469,5.459,5.498,10.635,11.276,18.891,20.062Z"/>
  <path d="m708.171,610.506c-73.114,0-142.626.168-212.137-.046-72.906-.225-65.977,8.235-66.147-65.321-.07-30.496-.038-60.993-.004-91.49.043-38.995,1.117-40.121,39.032-40.14,68.835-.034,137.67-.01,206.506-.01,9.452,0,18.904,0,32.741,0,0-24.927-.455-48.016.118-71.078.679-27.37,11.423-33.083,34.224-17.527,81.285,55.456,162.337,111.256,243.275,167.217,21.782,15.06,22.068,24.366.908,39.012-81.624,56.5-163.395,112.79-245.445,168.667-21.245,14.468-32.182,8.467-32.932-17.226-.659-22.591-.138-45.217-.138-72.057Zm33.075,49.837c74.293-51.081,143.372-98.576,215.804-148.378-73.101-50.282-142.552-98.053-215.811-148.444,0,22.658-.668,39.189.169,55.642,1.041,20.463-8.361,27.817-28.134,27.644-62.684-.549-125.375-.182-188.064-.171-19.722.003-39.445,0-60.322,0v130.73c10.785,0,20.076,0,29.367,0,72.266.006,144.538.545,216.794-.297,22.575-.263,32.058,8.051,30.411,30.708-1.125,15.478-.215,31.104-.215,52.565Z"/>
  <path d="m598.657,634.037c7.274,5.753,14.618,11.561,21.85,17.281-41.712,67.901-144.393,102.806-232.212,79.747-93.37-24.517-160.575-107.744-165.599-205.077-5.137-99.528,54.956-189.99,148.196-223.092,88.735-31.502,191.923-3.308,246.093,68.487-6.794,6.022-13.71,12.152-22.303,19.768-47.193-51.225-104.661-75.135-173.178-66.818-48.563,5.895-89,28.644-120.951,65.9-65.047,75.847-59.367,189.699,11.698,260.799,59.958,59.988,186.086,91.543,286.406-16.995Z"/>
  <path d="m378.948,94.797c1.262,9.886,2.337,18.299,3.604,28.227C205.617,162.711,97.271,270.606,57.559,448.848c-9.501-1.812-18.567-3.54-27.406-5.225,5.817-158.287,185.882-339.141,348.794-348.825Z"/>
  <path d="m31.264,597.374c10.013-2.326,18.346-4.262,29.117-6.765,44.174,167.532,150.594,271.632,321.762,309.77-1.011,9.962-1.938,19.088-2.86,28.168-125.785-9.963-307.698-124.821-348.019-331.172Z"/>
  <path d="m748.419,763.29c8.465,7.562,15.29,13.66,24.033,21.471-68.97,79.63-152.966,127.879-257.577,146.515-1.599-10.874-2.916-19.832-4.614-31.385,95.192-18.199,174.526-63.046,238.158-136.602Z"/>
  <path d="m510.247,124.334c1.568-11.502,2.713-19.898,4.257-31.223,96.345,15.509,175.24,59.547,242.302,128.074-2.614,3.479-4.341,6.505-6.748,8.826-4.955,4.776-10.274,9.175-16.259,14.447-61.043-63.787-134.851-103.225-223.553-120.124Z"/>
  <path d="m461.865,118.534h-30.281v-29.185h30.281v29.185Z"/>
  <path d="m22.338,528.242v-30.951c9.614-.477,18.725-.929,29.928-1.485v30.928c-8.813.444-17.902.902-29.928,1.507Z"/>
  <path d="m431.343,905.633h30.173v28.853h-30.173v-28.853Z"/>
</svg>