<?xml version="1.0" encoding="UTF-8"?><svg id="a" xmlns="http://www.w3.org/2000/svg" viewBox="0 0 1024 1024"><path d="M967.726,623.829c-3.978-6.861-10.672-11.891-18.359-13.795-14.981-3.718-30.381,4.902-35.063,19.622l-1.524,4.777c-.674,2.105-1.347,4.211-2.014,6.316-1.202,3.522-2.549,7.093-3.974,10.866-.814,2.158-1.628,4.315-2.421,6.479-4.46,11.17-9.555,22.356-15.181,33.323-21.953,43.135-52.752,82.918-89.011,115.001-18.89,16.614-38.463,30.92-58.181,42.524-20.505,12.071-42.27,22.347-64.663,30.531-45.7,16.645-92.228,24.734-138.188,24.048l-.104-.002c-22.448-.242-45.689-2.59-69.04-6.969-21.643-4.092-43.91-10.419-66.151-18.794-20.239-7.653-40.812-17.626-61.148-29.642l-14.796-9.297c-2.709-1.793-5.438-3.716-8.323-5.749-1.966-1.386-3.931-2.77-5.909-4.129l-.363-.245c-.939-.621-2.183-1.595-3.5-2.625-.759-.595-1.519-1.188-2.285-1.771l-6.986-5.402c-.487-.382-.978-.757-1.47-1.133-.482-.368-.968-.73-1.436-1.118l-10.198-8.549c-16.667-14.29-32.409-30.476-46.791-48.107l-.108-.132c-14.189-17.156-26.906-35.722-37.797-55.181l-.15-.266c-21.165-36.758-36.21-79.131-44.719-125.948-3.713-21.269-5.651-43.688-5.762-66.636,.041-3.235,.13-6.476,.224-9.903,.069-2.522,.139-5.045,.188-7.569l.005-.284v-.285c-.003-.875,.112-2.245,.235-3.696,.097-1.152,.192-2.304,.264-3.458l.636-8.523c1.047-11.086,2.549-22.305,4.471-33.385,3.768-21.907,9.612-43.819,17.371-65.129l.068-.188c7.551-21.268,17.088-42.002,28.347-61.626l.067-.117c11.508-20.312,24.551-39.242,38.817-56.324,14.9-17.956,31.215-34.422,48.492-48.941l.098-.083c35.771-30.375,76.364-53.788,120.647-69.589,21.859-7.796,44.951-13.768,68.636-17.75l13.392-1.958,13.349-1.485,13.405-1.024,13.46-.561,13.503-.098,13.37,.41,13.513,.906,13.5,1.374,13.461,1.84,13.436,2.308,9.068,1.867,.244,.049c2.604,.509,5.422,1.21,8.109,1.89,1.176,.296,2.355,.585,3.534,.875,1.761,.432,3.523,.863,5.276,1.327,1.827,.529,3.659,1.043,5.493,1.558,4.172,1.171,8.113,2.276,11.798,3.521l.649,.209c9.941,3.058,20.477,6.925,34.131,12.528,5.437,2.365,11.047,4.81,16.298,7.432l.601,.29c4.348,2.028,8.732,4.34,13.375,6.787l1.737,.914-60.473,10.039c-10.813,1.795-19.356,9.867-21.765,20.563-2.408,10.698,1.854,21.654,10.859,27.914l268.316,186.45c9.332,6.484,21.564,6.744,31.161,.664,9.604-6.084,14.598-17.263,12.721-28.479l-54.104-322.825c-1.817-10.847-9.929-19.392-20.663-21.77-10.735-2.379-21.693,1.941-27.902,10.977l-63.621,92.331c-25.345-18.961-52.427-35.266-80.729-48.589l-.158-.074c-15.185-7.018-27.172-12.012-38.812-16.167-4.917-1.885-9.704-3.455-14.337-4.974-1.777-.583-3.555-1.165-5.326-1.763l-.512-.167c-2.306-.723-4.544-1.376-6.708-2.009-1.08-.315-2.159-.63-3.199-.94-3.322-.997-6.921-2.048-10.742-2.988l-9.564-2.468-15.501-3.476-15.607-2.945-15.714-2.41-15.785-1.868-15.857-1.327-15.868-.782-16.328-.244-15.473,.316-15.893,.858-15.853,1.403-.492,.049c-28.364,3.124-56.268,8.686-82.943,16.534-54.675,16.104-105.389,41.678-150.73,76.008-22.525,17.046-43.641,36.274-62.768,57.162-18.877,20.637-36.15,43.411-51.343,67.692-30.3,48.441-51.377,101.363-62.644,157.284-5.609,27.778-8.724,56.238-9.255,84.598-.514,27.812,1.633,56.395,6.384,84.967,4.694,28.126,11.91,55.83,21.449,82.344l6.359,16.882,9.533,21.971,9.496,19.197,.228,.446c2.209,4.234,4.495,8.28,6.704,12.192,1.122,1.986,2.244,3.971,3.345,5.967l.287,.506c28.764,49.354,65.85,92.588,110.218,128.491,21.958,17.791,45.673,33.695,70.487,47.273,24.529,13.419,50.734,24.757,77.886,33.698,47.273,15.566,96.176,23.42,145.622,23.419,7.178,0,14.375-.166,21.572-.497,55.729-2.368,111.033-15.168,164.401-38.056,25.993-11.182,51.053-24.76,74.532-40.39,23.291-15.587,45.437-33.556,65.82-53.404,40.715-39.643,73.622-85.911,97.802-137.509,10.742-22.897,19.718-46.923,26.677-71.405,2.167-7.618,1.13-15.921-2.846-22.777Z"/><path d="M604.886,382.284l-188.06-108.829c-15.57-9.01-35.027,2.261-35.027,20.292v435.271c0,18.031,19.456,29.303,35.027,20.292l188.06-108.829,188.021-108.807c15.579-9.016,15.579-31.569,0-40.585l-188.021-108.807Z"/></svg>