<?xml version="1.0" encoding="UTF-8"?><svg id="a" xmlns="http://www.w3.org/2000/svg" viewBox="0 0 1024 1024"><defs><style>.b{fill:#263d42;}</style></defs><path class="b" d="M107.28,125.06v898.94H794.53c67.48,0,122.19-54.71,122.19-122.19V0H232.34c-69.07,0-125.06,55.99-125.06,125.06ZM710.78,975.24H313.22c-86.81,0-157.19-70.37-157.19-157.19V205.95c0-86.81,70.37-157.19,157.19-157.19h397.55c86.81,0,157.19,70.37,157.19,157.19V818.05c0,86.81-70.37,157.19-157.19,157.19Z"/><path class="b" d="M723.54,78.02H298.83c-63.6,0-115.16,51.56-115.16,115.16V830.82c0,63.6,51.56,115.16,115.16,115.16h424.71c63.6,0,115.16-51.56,115.16-115.16V193.18c0-63.6-51.56-115.16-115.16-115.16Zm-3.49,735.22c0,13.17-10.67,23.84-23.84,23.84H331.04c-13.17,0-23.84-10.67-23.84-23.84V225.39c0-13.17,10.67-23.84,23.84-23.84h348.91c13.17,0,23.84,10.67,23.84,23.84v20.58c0,13.17-10.67,23.84-23.84,23.84h-253.02c-13.17,0-23.84,10.67-23.84,23.84v153.87c0,13.17,10.67,23.84,23.84,23.84h236.76c13.17,0,23.84,10.67,23.84,23.84v20.58c0,13.17-10.67,23.84-23.84,23.84h-236.76c-13.17,0-23.84,10.67-23.84,23.84v181.5c0,13.17,10.67,23.84,23.84,23.84h269.27c13.17,0,23.84,10.67,23.84,23.84v20.58Z"/></svg>