<?xml version="1.0" encoding="UTF-8"?><svg id="a" xmlns="http://www.w3.org/2000/svg" viewBox="0 0 24 24"><defs><style>.b{fill:#263d42;}</style></defs><path class="b" d="M2,2.93V24H18.14c1.58,0,2.86-1.28,2.86-2.86V0H4.93c-1.62,0-2.93,1.31-2.93,2.93Zm14.25,20.07H6.68c-2.03,0-3.68-1.65-3.68-3.68V4.68c0-2.03,1.65-3.68,3.68-3.68h9.63c2.03,0,3.68,1.65,3.68,3.68v14.58c0,2.06-1.68,3.73-3.75,3.73h0Z"/><path class="b" d="M16.16,3.75H7.77c-1.21,0-2.19,.98-2.19,2.19v12.12c0,1.21,.98,2.19,2.19,2.19h8.45c1.21,0,2.19-.98,2.19-2.19V5.94c0-1.21-1.01-2.19-2.26-2.19h0Zm.42,13.98c-.61,.25-1.07,.69-1.07,.69h-6.73c-.25,0-.45-.2-.45-.45V6.95c0-.25,.2-.45,.45-.45h6.42s.45-.2,.46,.05v.39c0,.25-.21,.45-.46,.47h-4.81c-.25-.02-.23,.43-.23,.43v2.93s-.02,.45,.23,.31h4.5c.25,.14,.45,.35,.77,.6v.39c-.31,.25-.52,.45-.77-.07h-4.5c-.25,.53-.23,.98-.23,.98v3.45s-.02,.45,.23,1.07h5.12c.25-.62,.45-.42,1.07-.17v.39h0Z"/></svg>