<?xml version="1.0" encoding="UTF-8"?><svg id="a" xmlns="http://www.w3.org/2000/svg" viewBox="0 0 1024 1024"><defs><style>.b{fill:#b2b2b2;}</style></defs><path class="b" d="M744.632,459.234c-29.124-5.403-47.534,2.045-67.292,22.033-151.52,153.282-303.872,305.736-455.999,458.414-8.67,8.701-17.087,17.783-26.567,25.522-32.014,26.135-68.112,27.231-103.893,11.445-34.938-15.415-52.254-44.778-53.792-83.413-1.339-33.623,12.415-59.632,35.859-83.05,155.154-154.98,309.454-310.824,464.836-465.573,21.782-21.694,31.338-42.764,27.695-74.967-11.701-103.429,54.284-198.415,154.018-226.093,31.59-8.767,63.624-8.718,104.916,.052-33.988,34.344-60.68,63.288-89.56,89.834-20.791,19.111-25.202,38.944-17.775,65.954,27.352,99.476,12.11,80.467,108.945,109.252,26.837,7.977,46.801,3.172,65.627-17.873,26.896-30.065,55.846-58.277,87.882-91.374,40.729,145.361-91.839,286.381-234.9,259.839ZM125.221,944.843c22.298-.521,40.629-20.171,39.647-42.499-.94-21.366-19.537-39.329-40.308-38.934-21.31,.405-40.367,21.087-39.624,43,.738,21.737,18.766,38.936,40.284,38.433Z"/></svg>